<mxfile host="app.diagrams.net" modified="2024-01-04T14:03:16.002Z" agent="Mozilla/5.0 (X11; Linux x86_64) AppleWebKit/537.36 (KHTML, like Gecko) Chrome/120.0.0.0 Safari/537.36" version="22.1.16" etag="zsqumd21vt1yMs4ErPOn" type="github">
  <diagram name="Sivu-1" id="PQOS8glVJAGpCIl7WGz3">
    <mxGraphModel>
      <root>
        <mxCell id="0" />
        <mxCell id="1" parent="0" />
      </root>
    </mxGraphModel>
  </diagram>
</mxfile>
